<svg width="216" height="216" viewBox="0 0 216 216" fill="none" xmlns="http://www.w3.org/2000/svg">
<path d="M214 108C214 166.542 166.542 214 108 214C49.4578 214 2 166.542 2 108C2 49.4578 49.4578 2 108 2C166.542 2 214 49.4578 214 108Z" fill="#007BFF"/>
<path d="M188 108C188 152.183 152.183 188 108 188C63.8172 188 28 152.183 28 108C28 63.8172 63.8172 28 108 28C152.183 28 188 63.8172 188 108Z" fill="white"/>
<path d="M107.735 109.312C116.792 81.7766 98.1144 52.4688 67.4902 39M133 122C148.828 97.7158 131.5 37.6537 103 28.1537M158 120.5C171 95 157.5 45.3772 140.5 34.8772M108 108.5C80 116 66 146.207 71.5 179.207M108.135 80.7582C79.2094 78.8765 36.4897 124.004 42.1904 153.5M96 59C67.4018 60.1792 29.3115 97.0297 28.5 116.994M106.001 107.68C125.829 128.825 161.003 126.924 187.5 106.5M83.8904 123.711C98.4982 148.748 161.503 157.714 182.774 136.5M72.5 146.5C89.4628 169.555 141.492 180.536 158.5 170.05M214 108C214 166.542 166.542 214 108 214C49.4578 214 2 166.542 2 108C2 49.4578 49.4578 2 108 2C166.542 2 214 49.4578 214 108ZM188 108C188 152.183 152.183 188 108 188C63.8172 188 28 152.183 28 108C28 63.8172 63.8172 28 108 28C152.183 28 188 63.8172 188 108Z" stroke="#007BFF" stroke-width="4"/>
</svg>
