<svg width="24" height="24" viewBox="0 0 24 24" fill="currentColor" xmlns="http://www.w3.org/2000/svg">
  <path d="M12 2a1 1 0 0 1 1 1v1.07a7.001 7.001 0 0 1 3.39 1.36l.76-.76a1 1 0 1 1 1.42 1.42l-.76.76A7.001 7.001 0 0 1 21.93 11H23a1 1 0 1 1 0 2h-1.07a7.001 7.001 0 0 1-1.36 3.39l.76.76a1 1 0 1 1-1.42 1.42l-.76-.76A7.001 7.001 0 0 1 13 21.93V23a1 1 0 1 1-2 0v-1.07a7.001 7.001 0 0 1-3.39-1.36l-.76.76a1 1 0 1 1-1.42-1.42l.76-.76A7.001 7.001 0 0 1 2.07 13H1a1 1 0 1 1 0-2h1.07a7.001 7.001 0 0 1 1.36-3.39l-.76-.76a1 1 0 1 1 1.42-1.42l.76.76A7.001 7.001 0 0 1 11 2.07V1a1 1 0 1 1 2 0v1.07zM12 15a3 3 0 1 0 0-6 3 3 0 0 0 0 6z"/>
</svg>
